<svg viewBox="0 0 100 110" xmlns="http://www.w3.org/2000/svg">
  <defs>
    <linearGradient id="a7-body" x1="0%" y1="0%" x2="0%" y2="100%">
      <stop offset="0%" stop-color="#1f4e9d"/>
      <stop offset="100%" stop-color="#0e2a5c"/>
    </linearGradient>
    <linearGradient id="a7-face" x1="0%" y1="0%" x2="100%" y2="100%">
      <stop offset="0%" stop-color="#ffd9b3"/>
      <stop offset="100%" stop-color="#f0bf91"/>
    </linearGradient>
    <linearGradient id="a7-hair" x1="0%" y1="0%" x2="0%" y2="100%">
      <stop offset="0%" stop-color="#2d2018"/>
      <stop offset="100%" stop-color="#13100b"/>
    </linearGradient>
  </defs>
  <path d="M10 110 Q10 75 30 70 Q50 68 70 70 Q90 75 90 110 Z" fill="url(#a7-body)"/>
  <path d="M40 68 L50 80 L60 68 L62 88 L38 88 Z" fill="#f5e7d3"/>
  <path d="M48 80 L52 80 L54 100 L46 100 Z" fill="#0a1b3a"/>
  <ellipse cx="50" cy="46" rx="22" ry="26" fill="url(#a7-face)"/>
  <path d="M30 38 Q26 18 50 16 Q74 18 70 38 L72 30 Q66 22 50 22 Q34 22 28 30 Z" fill="url(#a7-hair)"/>
  <ellipse cx="42" cy="40" rx="3" ry="6" fill="rgba(255,255,255,0.2)"/>
</svg>
