<svg viewBox="0 0 100 110" xmlns="http://www.w3.org/2000/svg">
  <defs>
    <linearGradient id="a9-body" x1="0%" y1="0%" x2="0%" y2="100%">
      <stop offset="0%" stop-color="#a8276e"/>
      <stop offset="100%" stop-color="#6e1647"/>
    </linearGradient>
    <linearGradient id="a9-face" x1="0%" y1="0%" x2="100%" y2="100%">
      <stop offset="0%" stop-color="#ffd9b3"/>
      <stop offset="100%" stop-color="#f0bf91"/>
    </linearGradient>
    <linearGradient id="a9-hair" x1="0%" y1="0%" x2="0%" y2="100%">
      <stop offset="0%" stop-color="#5a1818"/>
      <stop offset="100%" stop-color="#2d0c0c"/>
    </linearGradient>
  </defs>
  <path d="M10 110 Q10 75 30 70 Q50 66 70 70 Q90 75 90 110 Z" fill="url(#a9-body)"/>
  <path d="M42 70 Q50 76 58 70 L62 76 L38 76 Z" fill="#c93180"/>
  <ellipse cx="50" cy="46" rx="22" ry="26" fill="url(#a9-face)"/>
  <path d="M26 32 Q26 12 50 12 Q74 12 74 32 L80 94 Q76 88 72 94 Q70 60 66 50 Q60 42 50 40 Q40 42 34 50 Q30 60 28 94 Q24 88 20 94 Z" fill="url(#a9-hair)"/>
  <ellipse cx="42" cy="40" rx="3" ry="6" fill="rgba(255,255,255,0.2)"/>
</svg>
