<svg viewBox="0 0 100 110" xmlns="http://www.w3.org/2000/svg">
  <defs>
    <linearGradient id="a6-body" x1="0%" y1="0%" x2="0%" y2="100%">
      <stop offset="0%" stop-color="#1f8b7d"/>
      <stop offset="100%" stop-color="#0d5249"/>
    </linearGradient>
    <linearGradient id="a6-face" x1="0%" y1="0%" x2="100%" y2="100%">
      <stop offset="0%" stop-color="#ffd9b3"/>
      <stop offset="100%" stop-color="#f0bf91"/>
    </linearGradient>
    <linearGradient id="a6-hair" x1="0%" y1="0%" x2="0%" y2="100%">
      <stop offset="0%" stop-color="#3a2a1f"/>
      <stop offset="100%" stop-color="#1d130c"/>
    </linearGradient>
  </defs>
  <path d="M10 110 Q10 75 30 70 Q50 66 70 70 Q90 75 90 110 Z" fill="url(#a6-body)"/>
  <path d="M42 70 Q50 76 58 70 L62 78 L38 78 Z" fill="#27a597"/>
  <ellipse cx="50" cy="46" rx="22" ry="26" fill="url(#a6-face)"/>
  <path d="M26 34 Q26 14 50 12 Q74 14 74 34 L80 92 Q76 88 72 92 Q70 60 66 50 Q62 40 50 38 Q38 40 34 50 Q30 60 28 92 Q24 88 20 92 Z" fill="url(#a6-hair)"/>
  <ellipse cx="42" cy="40" rx="3" ry="6" fill="rgba(255,255,255,0.2)"/>
</svg>
